<?xml version="1.0" encoding="utf-8"?>
<!DOCTYPE svg PUBLIC "-//W3C//DTD SVG 1.0//EN" "http://www.w3.org/TR/2001/REC-SVG-20010904/DTD/svg10.dtd">
<svg version="1.0" xmlns="http://www.w3.org/2000/svg" width="647px" height="482px" viewBox="0 0 647 482" preserveAspectRatio="xMidYMid meet">
 <g fill="#ffffff">
  <path d="M155.85 465.60 c-0.80 -0.85 -0.85 -4.50 -0.85 -41.95 0 -22.60 -0.15 -41.40 -0.30 -41.85 -0.30 -0.70 -3.10 -0.80 -26.90 -0.80 -14.60 0 -26.85 0.20 -27.20 0.40 -0.35 0.25 -12.25 12 -26.50 26.15 -32.80 32.60 -31 30.95 -33.65 30.95 -2.05 0 -2.40 -0.25 -7.40 -5.10 -7.20 -7.05 -8.05 -8.15 -8.05 -10.45 0 -1.80 0.50 -2.40 11.15 -13.05 6.10 -6.15 13.20 -13.30 15.70 -15.90 2.50 -2.60 11.50 -11.65 19.95 -20.05 13.85 -13.75 15.80 -15.50 18.95 -17 l3.50 -1.70 33.15 -0.15 33.20 -0.15 48.05 -47.95 48.10 -47.95 -29.80 -29.85 -29.85 -29.80 -15.90 15.95 c-25.55 25.60 -103.70 102.80 -104.90 103.65 -2.40 1.70 -8.10 2.10 -10.40 0.70 -1.45 -0.90 -1.90 -3.80 -1.90 -12.85 0 -9 0 -9.20 1.25 -10.90 0.70 -0.95 26.60 -26.90 57.55 -57.70 l56.25 -56 -50.50 -50.75 c-33.75 -33.90 -50.85 -51.45 -51.55 -52.85 -0.80 -1.60 -1 -2.80 -0.90 -5.45 0.15 -3 0.30 -3.45 1.55 -4.40 1.30 -0.95 2.20 -1.05 10.40 -1.25 8.35 -0.15 9.15 -0.10 11.75 0.95 2.50 1.05 6.55 5 46.90 45.55 l44.10 44.45 83.30 0 83.30 0 47.55 -47.85 47.55 -47.90 0 -16.55 c0 -16.35 0 -16.55 1.15 -18.20 2 -2.95 3.40 -3.65 9 -4.35 5.85 -0.70 39.15 -0.90 39.55 -0.20 0.15 0.20 1.15 0.55 2.25 0.70 2.50 0.30 4.75 1.90 6.35 4.40 l1.20 1.95 0 21.85 0 21.90 -1.25 1.85 c-0.80 1.15 -2.25 2.30 -3.95 3.10 l-2.75 1.30 -16.20 0 -16.20 0 -80.60 80.75 c-44.30 44.40 -80.55 81.10 -80.55 81.50 0 0.65 8 0.75 69.10 0.75 l69.05 0 36.30 -36.60 c19.95 -20.10 36.25 -36.85 36.15 -37.25 -0.10 -0.40 0.30 -0.65 1.05 -0.65 0.85 0 1.45 0.45 1.90 1.45 1.05 2.10 7.45 9.75 9.20 10.95 0.85 0.60 2.50 1.95 3.75 3.05 1.25 1.10 2.65 2.15 3.15 2.30 1.05 0.40 1.20 2.85 0.10 2.65 -0.60 -0.15 -67.25 65.85 -67.25 66.60 0 0.15 4.65 4.95 10.40 10.65 l10.35 10.35 17.40 0 17.35 0 0 -4.20 c0 -5.70 0.35 -7.05 2.35 -9 3.35 -3.20 4.60 -3.35 26.70 -3.20 l19.70 0.15 2.55 1.35 c1.60 0.85 3.05 2.10 3.75 3.25 l1.20 1.90 0 22.10 c0 21.60 0 22.10 -1.05 23.50 -2.85 3.85 -7.20 4.60 -27.20 4.60 -16.10 0 -21.80 -0.45 -24.15 -2 -2.75 -1.80 -3.85 -4.40 -3.85 -9.35 l0 -4.10 -16.35 0 c-20.15 0 -24.70 -0.40 -29.15 -2.60 -3.35 -1.60 -7.60 -5.65 -26 -24.65 l-6.75 -7 -73.35 0 c-40.30 0 -73.50 0.20 -73.70 0.40 -0.25 0.20 3.50 4.25 8.30 8.95 28.15 27.45 99.50 97.95 115.15 113.75 l3.10 3.15 11.40 0 11.35 0 0 -4.45 c0 -2.80 0.25 -5.10 0.75 -6.25 0.90 -2.10 3.70 -4.05 6.85 -4.80 3 -0.70 41.60 -0.65 44.15 0.05 3 0.80 6.05 2.95 7 4.90 0.70 1.50 0.80 4.30 0.75 24.20 -0.05 24.60 0.05 24.05 -3 26.30 -3.35 2.45 -4.50 2.55 -28.65 2.55 l-22.60 0 -1.90 -1.55 c-2.75 -2.30 -3.35 -4.15 -3.35 -10.75 l0 -5.65 -16.10 -0.15 c-13.95 -0.15 -16.35 -0.25 -17.65 -1 -0.80 -0.45 -2.20 -1.20 -3.05 -1.65 -0.85 -0.45 -32.55 -31.65 -70.45 -69.40 -37.90 -37.75 -69.20 -68.60 -69.55 -68.60 -0.30 0 -22.45 21.65 -49.10 48.15 l-48.50 48.10 0.05 45.55 c0.10 44.55 0.10 45.55 -0.85 46.25 -0.80 0.55 -3.10 0.70 -10.80 0.70 -8.90 0 -9.90 -0.10 -10.65 -0.90z m129.40 -233.70 c5.25 -5.30 17.90 -18.10 28.15 -28.45 10.20 -10.40 18.60 -19 18.60 -19.15 0 -0.15 -25.55 -0.30 -56.75 -0.30 -31.20 0 -56.75 0.15 -56.75 0.40 0 0.40 56.60 57.10 57 57.10 0.15 0 4.55 -4.35 9.75 -9.60z"/>
 </g>
 <g fill="#ffffff">
  <path d="M560.50 196.45 c-8.05 -1.05 -19.90 -6 -25 -10.50 -1.25 -1.10 -2.90 -2.45 -3.75 -3.05 -1.55 -1.05 -7.95 -8.55 -9 -10.55 -0.35 -0.60 -1.40 -2.45 -2.35 -4.10 -2.90 -5.15 -4.45 -9.65 -5.65 -16.45 -3.80 -22.05 7.60 -44.45 28.25 -55.40 5.95 -3.15 10.15 -4.60 16.70 -5.65 28.85 -4.70 57.25 15.90 61.55 44.60 1.70 11.20 0.10 21.60 -4.80 31.25 -2.70 5.40 -3.45 6.50 -7 10.85 -6.15 7.40 -16.45 14.35 -25.20 17.05 -7.25 2.20 -16.10 2.95 -23.75 1.95z m17.05 -21.90 c10.45 -3.30 18.45 -11.30 22.10 -22.05 1.45 -4.25 1.50 -13.20 0.10 -17.75 -3.50 -11.50 -13.50 -20.60 -25.35 -22.95 -7.20 -1.50 -13.70 -0.70 -20.30 2.45 -20.65 9.80 -25.45 35.80 -9.55 51.75 4.95 4.90 9.90 7.70 16.70 9.30 4.15 0.95 12 0.60 16.30 -0.75z"/>
  <path d="M551.50 143.50 l0 -16.50 5.50 0 5.50 0 0 6.25 0 6.25 6 0 6 0 0 -6.25 0 -6.25 5.50 0 5.50 0 0 16.50 0 16.50 -5.50 0 -5.50 0 0 -5.50 0 -5.50 -6 0 -6 0 0 5.50 0 5.50 -5.50 0 -5.50 0 0 -16.50z"/>
 </g>
</svg>